<svg width="16" height="16" viewBox="0 0 16 16" fill="none" xmlns="http://www.w3.org/2000/svg">
<path d="M0.792885 5.41794H3.82847V15.1269H0.792885V5.41794ZM2.30137 0.563477C1.33296 0.563477 0.550781 1.34465 0.550781 2.31183C0.550781 3.279 1.33296 4.06018 2.30137 4.06018C3.26978 4.06018 4.05195 3.279 4.05195 2.31183C4.05195 1.34465 3.26978 0.563477 2.30137 0.563477ZM11.5199 5.15754C10.0486 5.15754 9.06161 5.95732 8.6519 6.7199H8.61465V5.38074H5.70942V15.1269H8.72639V10.3096C8.72639 9.04483 8.96849 7.81727 10.5328 7.81727C12.0972 7.81727 12.0972 9.26803 12.0972 10.4026V15.1269H15.1142V9.78881C15.1142 7.16629 14.5555 5.15754 11.4826 5.15754H11.5199Z" fill="#3777F3"/>
</svg>
