<svg width="18" height="15" viewBox="0 0 18 15" fill="none" xmlns="http://www.w3.org/2000/svg">
<path d="M17.0207 0.804747C16.6695 1.00018 16.3621 1.15219 16.0328 1.28248C15.7035 1.41277 15.3523 1.52134 15.001 1.6082C14.8254 1.65163 14.7156 1.6082 14.5839 1.49963C13.5741 0.587597 12.3886 0.327017 11.0714 0.739602C9.33712 1.28248 8.37118 2.95453 8.70048 4.73516C8.70048 4.84373 8.70048 4.86545 8.59071 4.86545C8.01993 4.82202 7.44915 4.73516 6.87837 4.60487C4.79282 4.10542 3.05852 3.04139 1.63156 1.4562C1.5657 1.36934 1.49984 1.28248 1.41203 1.21733C0.972969 2.02079 0.841251 2.84596 1.03883 3.73627C1.23641 4.62658 1.74133 5.32146 2.50969 5.88605C2.37797 5.88605 2.29016 5.88605 2.20235 5.86434C1.80719 5.82091 1.41203 5.71233 1.06078 5.5169C0.972969 5.47347 0.929063 5.45175 0.929063 5.58204C0.972969 6.77637 1.49984 7.71011 2.48774 8.38328C2.86094 8.64386 3.27805 8.79586 3.73907 8.92615C3.21219 9.07816 2.70727 9.07816 2.15844 8.9913C2.39992 9.70789 2.81703 10.2942 3.40977 10.7285C4.0025 11.1628 4.68305 11.4017 5.45141 11.4234C3.89274 12.596 2.18039 13.052 0.226562 12.8783C1.49984 13.6817 2.83899 14.1595 4.28789 14.3549C5.56118 14.5286 6.83446 14.4635 8.08579 14.1812C10.5006 13.6166 12.4325 12.3137 13.8375 10.2942C15.1327 8.44842 15.7694 6.40721 15.7255 4.14885C15.7255 4.04028 15.7474 3.97513 15.8352 3.9317C16.1206 3.73627 16.3841 3.49741 16.6256 3.23683C16.7353 3.12825 16.8231 3.01968 16.911 2.9111C16.9988 2.80253 17.1085 2.69395 17.1963 2.58538C17.2842 2.4768 17.372 2.36823 17.4378 2.25965C16.8012 2.49852 16.1645 2.67224 15.506 2.73738C16.2085 2.25965 16.7134 1.65163 16.9988 0.826462L17.0207 0.804747Z" fill="#3777F3"/>
</svg>
