<svg width="16" height="16" viewBox="0 0 16 16" fill="none" xmlns="http://www.w3.org/2000/svg">
<path d="M11.0275 0.549316H4.63745C2.38978 0.549316 0.550781 2.38831 0.550781 4.63598V11.026C0.550781 13.2737 2.38978 15.1127 4.63745 15.1127H11.0275C13.2752 15.1127 15.1142 13.2737 15.1142 11.026V4.63598C15.1142 2.38831 13.2937 0.549316 11.0275 0.549316ZM13.7767 11.026C13.7767 12.5492 12.5507 13.7752 11.0275 13.7752H4.63745C3.11423 13.7752 1.88824 12.5492 1.88824 11.026V4.63598C1.88824 3.11277 3.11423 1.88677 4.63745 1.88677H11.0275C12.5507 1.88677 13.7767 3.11277 13.7767 4.63598V11.026ZM7.83247 4.11586C5.78914 4.11586 4.11732 5.78768 4.11732 7.83101C4.11732 9.87434 5.78914 11.5462 7.83247 11.5462C9.8758 11.5462 11.5476 9.87434 11.5476 7.83101C11.5476 5.78768 9.8758 4.11586 7.83247 4.11586ZM7.83247 10.2087C6.51359 10.2087 5.45478 9.14988 5.45478 7.83101C5.45478 6.51213 6.51359 5.45331 7.83247 5.45331C9.15135 5.45331 10.2102 6.51213 10.2102 7.83101C10.2102 9.14988 9.15135 10.2087 7.83247 10.2087ZM12.5879 3.89295C12.5879 4.39449 12.1978 4.78458 11.6962 4.78458C11.1947 4.78458 10.8046 4.37592 10.8046 3.89295C10.8046 3.40998 11.2133 3.00131 11.6962 3.00131C12.1792 3.00131 12.5879 3.40998 12.5879 3.89295Z" fill="#3777F3"/>
</svg>
