<svg width="48" height="36" viewBox="0 0 48 36" fill="none" xmlns="http://www.w3.org/2000/svg">
<path d="M10.17 12.7014L11.2345 14.9467H14.2347V14.5596L8.04081 1.28142H6.70525L0.472656 14.5596V14.9467H3.49218L4.53739 12.7014H10.17ZM7.36336 5.79134L9.24088 10.2626H5.48583L7.36336 5.79134Z" fill="#004CA9"/>
<path d="M14.5482 0.778164V11.4045C14.5482 14.7531 16.2902 15.4693 19.1742 14.9467L19.0774 12.9143C17.7806 13.1272 17.2193 12.8369 17.2193 11.4045V0.778164H14.5482Z" fill="#004CA9"/>
<path d="M19.147 7.14625C20.1148 7.08819 20.1922 7.51402 20.1922 8.52052V14.9467H22.9021V9.60445C22.9021 8.28825 23.715 7.57208 24.7022 7.55273C25.6893 7.55273 26.3474 8.28825 26.3474 9.54638V14.9467H28.9798V9.54638C28.9992 8.30761 29.754 7.55273 30.7025 7.55273C31.6316 7.55273 32.2703 8.28825 32.2122 9.52703V12.7014C32.2122 15.0822 33.993 15.3919 36.006 14.8693V13.3014C35.0188 13.3595 34.9221 12.9337 34.9221 12.082V9.52703C34.9801 7.22368 34.3801 5.40422 31.7477 5.40422C30.4315 5.40422 29.154 5.92683 28.554 7.14625C28.1088 6.00426 27.2958 5.40422 25.6893 5.40422C24.4312 5.40422 23.2505 5.90748 22.7859 7.06883C22.7859 5.1526 20.5019 5.21066 19.147 5.57843V7.14625Z" fill="#004CA9"/>
<path d="M45.8147 6.27524C44.576 5.75263 43.2211 5.42358 41.8468 5.40422C38.6918 5.34616 36.5433 7.01076 36.4465 10.1658C36.4465 12.8175 37.782 15.0435 40.6661 15.1015C41.9049 15.1015 43.1049 14.4628 43.6275 13.3014C43.6275 15.2177 45.447 15.1209 46.7051 14.8499V13.1079C45.776 13.1659 45.8147 12.7401 45.8147 11.9465V6.27524ZM43.1823 10.2626C43.1243 11.6755 42.5436 12.7014 41.2468 12.7014C39.8531 12.7208 39.1563 11.6368 39.1563 10.1658C39.2144 8.38503 40.1628 7.57208 41.6339 7.57208C42.0984 7.57208 42.6597 7.63015 43.1823 7.84307V10.2626Z" fill="#004CA9"/>
<path d="M10.0968 31.6785C10.0968 34.6399 12.9034 35.9755 15.6132 35.9755C18.2843 35.9174 21.0522 34.9303 21.0522 31.7365C21.0522 28.5622 18.594 27.9234 15.7293 27.6718C14.3164 27.5169 13.1356 27.246 13.1356 26.0459C13.1356 25.0007 14.2776 24.3813 15.439 24.3813C16.6004 24.3813 17.7423 24.8458 17.8972 25.9491H20.607C20.607 22.9102 17.9746 21.8457 15.439 21.8457C12.7485 21.8457 10.2903 23.1038 10.2903 26.104C10.2903 28.9106 12.7679 29.7429 15.2261 29.9558C16.5229 30.0526 18.1875 30.1881 18.1875 31.7365C18.1875 33.1495 16.7939 33.4399 15.5938 33.4399C14.2776 33.4399 12.9227 32.9172 12.8647 31.6785H10.0968Z" fill="#004CA9"/>
<path d="M31.6483 30.9817C31.6483 27.7299 29.1708 26.0846 26.6932 26.0846C24.2157 26.0846 21.7575 27.7299 21.7575 30.9817C21.7575 34.2528 24.2157 35.8981 26.6932 35.8981C29.1708 35.8981 31.6483 34.2528 31.6483 30.9817ZM24.448 30.9817C24.448 29.2977 25.5706 28.4654 26.7126 28.4654C27.8352 28.4654 28.9579 29.317 28.9579 30.9817C28.9579 32.6656 27.8546 33.5173 26.7126 33.5173C25.5706 33.5173 24.448 32.685 24.448 30.9817Z" fill="#004CA9"/>
<path d="M33.5868 35.6851H36.2192V28.2912H39.1613V26.375H36.2192V25.2523C36.2192 23.2587 37.9806 23.3361 39.3742 23.8587L39.6452 21.8457C36.587 20.9166 33.6449 21.3811 33.6449 25.1942L33.6255 26.375H31.8641V28.2912H33.5868V35.6851Z" fill="#004CA9"/>
<path d="M43.4609 23.4716H41.293L41.0027 26.375H39.0477V28.2331L40.8091 28.4073V32.0849C40.8091 35.9174 43.6544 36.44 46.8675 35.5496L46.6159 33.4979C45.0674 34.0592 43.4609 33.9625 43.4609 32.0269V28.4073H46.4998V26.375H43.4609V23.4716Z" fill="#004CA9"/>
<rect y="18" width="47.0072" height="1.38256" fill="#004CA9"/>
</svg>
