<svg width="68" height="68" viewBox="0 0 68 68" fill="none" xmlns="http://www.w3.org/2000/svg">
<path d="M11.4701 18.0374C9.28544 19.4418 4.61405 22.4367 1.93125 29.0307C1.68917 29.6248 2.20933 30.271 2.83352 30.123C2.83752 30.123 2.84352 30.121 2.84752 30.119C5.34426 29.5108 7.86902 28.9766 10.4198 28.5145C11.228 28.3685 11.8902 27.7903 12.1523 27.0121C13.6968 22.4127 16.4796 18.5675 19.9586 17.7333C20.6788 17.5612 21.373 18.0934 21.373 18.8336V24.6653V27.5802C21.373 29.0226 20.2907 30.227 18.8583 30.3971C14.2889 30.9332 9.76758 31.7155 5.30425 32.7378C1.71718 33.558 -0.581503 37.0731 0.128709 40.6841C2.82351 54.4002 13.6247 65.2074 27.3368 67.9122C30.1236 68.4624 32.7124 66.2938 32.7124 63.4529V23.7991C32.7124 18.2014 28.031 14.1562 22.7294 14.1562C17.744 14.1562 13.6567 16.631 11.4721 18.0374H11.4701ZM21.395 60.1899C21.395 61.4843 20.0106 62.2966 18.8723 61.6804C15.9314 60.0859 11.4021 54.9164 10.8839 38.2274C10.8499 37.1131 11.6341 36.1388 12.7305 35.9307L19.3784 34.6743C20.4268 34.4763 21.395 35.2805 21.395 36.3468V60.1899Z" fill="#004CA9"/>
<path d="M62.4374 32.7358C57.9741 31.7135 53.4527 30.9332 48.8834 30.3951C47.451 30.227 46.3686 29.0207 46.3686 27.5782V25.0575V24.6634V18.8316C46.3686 18.0914 47.0628 17.5592 47.7831 17.7313C51.2621 18.5655 54.0449 22.4107 55.5894 27.0101C55.8515 27.7883 56.5137 28.3665 57.3219 28.5125C59.8727 28.9747 62.3974 29.5108 64.8942 30.117C64.8982 30.117 64.9042 30.119 64.9082 30.121C65.5323 30.269 66.0525 29.6228 65.8104 29.0287C63.1276 22.4327 58.4562 19.4398 56.2716 18.0354C54.0869 16.631 50.0017 14.1542 45.0142 14.1542C39.7146 14.1542 35.0312 18.1974 35.0312 23.7971V30.271C35.0312 31.3614 35.8075 32.2976 36.8778 32.4997L46.3686 34.2942L55.0332 35.9327C56.1295 36.1408 56.9138 37.1151 56.8798 38.2294C56.3616 54.9144 51.8343 60.0839 48.8914 61.6784C47.753 62.2946 46.3686 61.4823 46.3686 60.188V39.7799C46.3686 39.2357 45.9805 38.7676 45.4444 38.6655L36.3757 36.951C35.6774 36.819 35.0312 37.3551 35.0312 38.0654V63.4549C35.0312 66.2958 37.618 68.4644 40.4069 67.9143C54.1189 65.2075 64.9182 54.4022 67.615 40.6861C68.3252 37.0751 66.0265 33.558 62.4374 32.7378V32.7358Z" fill="#004CA9"/>
<path d="M22.8093 4.2993C27.9048 7.00011 31.864 11.5915 33.4725 17.3292C33.5385 17.5673 33.8566 17.6093 33.9867 17.3972C34.1167 17.1851 34.2627 16.9591 34.4128 16.747C34.4548 16.687 34.4708 16.615 34.4588 16.543C33.9687 13.9942 32.0301 7.22818 24.7659 1.97661C24.5438 1.81456 24.2358 1.84057 24.0397 2.03463C23.6876 2.37873 23.1294 2.93289 22.6713 3.40504C22.4092 3.67712 22.4792 4.12325 22.8133 4.2993H22.8093Z" fill="#004CA9"/>
<path opacity="0.5" d="M39.9644 3.0049C40.0885 2.93688 40.1965 3.11493 40.0825 3.19695C37.0616 5.34759 35.0349 8.80262 35.0349 12.9299V13.492C35.0389 13.7761 35.285 13.9982 35.5671 13.9702C40.8947 13.454 45.142 9.25076 45.7301 3.94318H45.7341C45.8962 2.55876 46.3903 1.27638 47.1366 0.176052C47.1886 0.10003 47.1366 0 47.0445 0H45.4801H41.0007C35.9472 0 32.5082 3.351 32.5082 8.0444C32.4982 8.14843 32.4922 8.25446 32.4922 8.36249C32.4922 9.28277 32.9023 10.103 33.5505 10.6572C33.7086 10.7932 33.9586 10.7192 34.0106 10.5171C34.8649 7.22215 37.0836 4.57336 39.9644 3.0049Z" fill="#004CA9"/>
</svg>
